HIERARCHY
ROOT Hips
{
	OFFSET 0.00000 0.00000 0.00000
	CHANNELS 6 Xposition Yposition Zposition Zrotation Yrotation Xrotation 
	JOINT LHipJoint
	{
		OFFSET 0 0 0
		CHANNELS 3 Zrotation Yrotation Xrotation
		JOINT LeftUpLeg
		{
			OFFSET 1.39187 -1.60231 0.69152
			CHANNELS 3 Zrotation Yrotation Xrotation
			JOINT LeftLeg
			{
				OFFSET 2.43314 -6.68499 0.00000
				CHANNELS 3 Zrotation Yrotation Xrotation
				JOINT LeftFoot
				{
					OFFSET 2.32059 -6.37578 0.00000
					CHANNELS 3 Zrotation Yrotation Xrotation
					JOINT LeftToeBase
					{
						OFFSET 0.23021 -0.63250 1.71305
						CHANNELS 3 Zrotation Yrotation Xrotation
						End Site
						{
							OFFSET 0.00000 -0.00000 0.91647
						}
					}
				}
			}
		}
	}
	JOINT RHipJoint
	{
		OFFSET 0 0 0
		CHANNELS 3 Zrotation Yrotation Xrotation
		JOINT RightUpLeg
		{
			OFFSET -1.19407 -1.60231 0.69152
			CHANNELS 3 Zrotation Yrotation Xrotation
			JOINT RightLeg
			{
				OFFSET -2.44411 -6.71513 0.00000
				CHANNELS 3 Zrotation Yrotation Xrotation
				JOINT RightFoot
				{
					OFFSET -2.31924 -6.37207 0.00000
					CHANNELS 3 Zrotation Yrotation Xrotation
					JOINT RightToeBase
					{
						OFFSET -0.19473 -0.53502 1.87724
						CHANNELS 3 Zrotation Yrotation Xrotation
						End Site
						{
							OFFSET -0.00000 -0.00000 0.98293
						}
					}
				}
			}
		}
	}
	JOINT LowerBack
	{
		OFFSET 0 0 0
		CHANNELS 3 Zrotation Yrotation Xrotation
		JOINT Spine
		{
			OFFSET -0.01120 1.87307 0.09613
			CHANNELS 3 Zrotation Yrotation Xrotation
			JOINT Spine1
			{
				OFFSET 0.01099 1.87818 0.04834
				CHANNELS 3 Zrotation Yrotation Xrotation
				JOINT Neck
				{
					OFFSET 0 0 0
					CHANNELS 3 Zrotation Yrotation Xrotation
					JOINT Neck1
					{
						OFFSET 0.01702 1.40324 -0.12579
						CHANNELS 3 Zrotation Yrotation Xrotation
						JOINT Head
						{
							OFFSET -0.04239 1.38587 -0.01614
							CHANNELS 3 Zrotation Yrotation Xrotation
							End Site
							{
								OFFSET -0.02510 1.47031 -0.00154
							}
						}
					}
				}
				JOINT LeftShoulder
				{
					OFFSET 0 0 0
					CHANNELS 3 Zrotation Yrotation Xrotation
					JOINT LeftArm
					{
						OFFSET 2.95699 0.62343 0.11653
						CHANNELS 3 Zrotation Yrotation Xrotation
						JOINT LeftForeArm
						{
							OFFSET 4.68382 -0.00000 -0.00000
							CHANNELS 3 Zrotation Yrotation Xrotation
							JOINT LeftHand
							{
								OFFSET 2.98124 -0.00000 -0.00000
								CHANNELS 3 Zrotation Yrotation Xrotation
								JOINT LeftFingerBase
								{
									OFFSET 0 0 0
									CHANNELS 3 Zrotation Yrotation Xrotation
									JOINT LeftHandIndex1
									{
										OFFSET 0.70759 -0.00000 0.00000
										CHANNELS 3 Zrotation Yrotation Xrotation
										End Site
										{
											OFFSET 0.57048 -0.00000 0.00000
										}
									}
								}
								JOINT LThumb
								{
									OFFSET 0 0 0
									CHANNELS 3 Zrotation Yrotation Xrotation
									End Site
									{
										OFFSET 0.57919 -0.00000 0.57919
									}
								}
							}
						}
					}
				}
				JOINT RightShoulder
				{
					OFFSET 0 0 0
					CHANNELS 3 Zrotation Yrotation Xrotation
					JOINT RightArm
					{
						OFFSET -2.99027 0.88714 -0.02793
						CHANNELS 3 Zrotation Yrotation Xrotation
						JOINT RightForeArm
						{
							OFFSET -4.75876 -0.00000 -0.00000
							CHANNELS 3 Zrotation Yrotation Xrotation
							JOINT RightHand
							{
								OFFSET -2.93293 -0.00000 -0.00000
								CHANNELS 3 Zrotation Yrotation Xrotation
								JOINT RightFingerBase
								{
									OFFSET 0 0 0
									CHANNELS 3 Zrotation Yrotation Xrotation
									JOINT RightHandIndex1
									{
										OFFSET -0.83175 -0.00000 0.00000
										CHANNELS 3 Zrotation Yrotation Xrotation
										End Site
										{
											OFFSET -0.67058 -0.00000 0.00000
										}
									}
								}
								JOINT RThumb
								{
									OFFSET 0 0 0
									CHANNELS 3 Zrotation Yrotation Xrotation
									End Site
									{
										OFFSET -0.68082 -0.00000 0.68082
									}
								}
							}
						}
					}
				}
			}
		}
	}
}
MOTION
Frames: 11
Frame Time: .0083333
48.0138 16.6155 -0.8019 0 0 0 0 0 0 -21 0 0 0 0 0 0 0 0 0 0 0 0 0 0 21 0 0 0 0 0 0 0 0 0 0 0 0 0 0 0 0 0 0 0 0 0 0 -16 0 0 21 0 0 11 0 0 0 -8 0 0 0 0 0 0 0 0 0 0 0 0 0 0 0 0 0 0 0 0 8 0 0 0 0 0 0 0 0 0 0 0 0 0 0 0 0 0
48.0138 16.6155 -0.8019 157.1640 -88.9630 -142.0640 0.0000 0.0000 0.0000 -15.6346 -22.5718 -17.2042 2.0505 8.9704 25.7027 1.0455 3.1665 -20.6996 0.0921 -1.9574 -5.3878 0.0000 0.0000 0.0000 16.7105 21.4538 -13.9144 -1.3849 -7.4460 21.0437 1.1060 -18.4559 -10.0810 -1.3469 7.3474 -20.7486 -5.0622 -0.0279 -13.6171 1.1428 0.1450 -7.4276 4.0710 0.0765 -0.2389 -9.1195 -4.3350 6.9994 7.3650 -6.5805 2.8180 4.1517 -3.4701 0.2689 0.0000 -0.0000 0.0000 -97.0349 2.0012 5.9975 7.1901 -12.2318 -0.7714 -0.0000 -0.0000 53.7485 -8.9559 22.1920 -3.4065 -7.1250 0.0000 -0.0000 -36.1340 48.5581 -3.6117 0.0000 -0.0000 0.0000 94.4926 -6.0148 9.2981 -7.6193 12.9339 -0.8649 0.0000 0.0000 34.3771 -12.7877 11.5997 -2.6130 7.1250 -0.0000 -0.0000 10.0460 -18.1973 6.5072
48.0197 16.6161 -0.8040 166.3790 -88.9901 -151.3230 0.0000 0.0000 0.0000 -15.4697 -22.5167 -17.2642 2.0682 9.0068 25.8165 1.0470 3.2430 -20.7529 0.1243 -2.2727 -6.2600 0.0000 0.0000 0.0000 16.9027 21.5988 -13.8187 -1.3815 -7.4372 21.0174 1.1085 -18.4857 -10.1656 -1.2743 7.1543 -20.1734 -4.9846 -0.0231 -13.6827 1.2519 0.1541 -7.3055 4.1436 0.0772 -0.0747 -9.1298 -4.4780 6.8656 7.2758 -6.7540 2.7490 4.1184 -3.5516 0.2835 0.0000 0.0000 0.0000 -97.1044 1.8353 7.1493 7.3354 -12.4699 -0.8025 -0.0000 -0.0000 52.2964 -9.8020 23.1182 -3.8806 -7.1250 0.0000 -0.0000 -37.4404 49.1924 -4.4403 0.0000 0.0000 0.0000 94.4113 -5.8263 9.2025 -7.5447 12.8122 -0.8483 0.0000 0.0000 35.5628 -12.8854 11.5354 -2.6193 7.1250 -0.0000 -0.0000 9.9796 -18.2562 6.4496
48.0275 16.6164 -0.8049 171.2840 -88.9635 -156.2210 0.0000 0.0000 0.0000 -15.3891 -22.3798 -17.4295 2.0844 9.0396 25.9194 1.0437 3.2525 -20.7275 0.1291 -2.3162 -6.3804 0.0000 0.0000 0.0000 16.9826 21.5110 -13.9108 -1.3813 -7.4368 21.0162 1.0858 -18.3166 -10.1489 -1.2832 7.1785 -20.2452 -4.9670 -0.0301 -13.7417 1.3256 0.1502 -7.2290 4.2112 0.0732 0.0380 -9.0272 -4.6240 6.8896 7.1435 -6.9275 2.4943 4.0570 -3.6320 0.2034 0.0000 -0.0000 0.0000 -97.1348 1.7295 7.6267 7.3713 -12.5286 -0.8103 -0.0000 -0.0000 52.0768 -9.6342 22.9272 -3.7834 -7.1250 0.0000 -0.0000 -37.1743 49.0616 -4.2653 0.0000 -0.0000 0.0000 94.2926 -5.7201 9.9450 -7.5625 12.8412 -0.8522 0.0000 0.0000 35.7188 -12.7563 11.1995 -2.5177 7.1250 -0.0000 -0.0000 10.0791 -18.6020 6.4376
48.0354 16.6160 -0.8060 170.9850 -88.9211 -155.9460 0.0000 0.0000 0.0000 -15.4313 -22.2076 -17.5837 2.1042 9.0799 26.0455 1.0311 3.2112 -20.5917 0.1317 -2.3393 -6.4443 0.0000 0.0000 0.0000 16.9680 21.4423 -13.9375 -1.3748 -7.4200 20.9657 1.0696 -18.1899 -10.1015 -1.2859 7.1856 -20.2664 -4.9890 -0.0496 -13.6834 1.3367 0.1276 -7.1962 4.2320 0.0630 0.0438 -9.0522 -4.6608 6.8656 7.1693 -6.9718 2.4109 4.0717 -3.6527 0.1866 0.0000 0.0000 0.0000 -97.1252 1.6298 8.1529 7.4468 -12.6521 -0.8267 -0.0000 -0.0000 51.2255 -9.9347 23.1665 -3.9418 -7.1250 0.0000 -0.0000 -37.5842 49.2115 -4.4824 0.0000 0.0000 0.0000 94.2235 -5.6872 10.9962 -7.6239 12.9415 -0.8660 0.0000 0.0000 35.5198 -12.4939 11.0408 -2.4299 7.1250 -0.0000 -0.0000 10.2674 -18.7762 6.5215
48.0387 16.6200 -0.8065 167.0620 -88.9037 -152.0890 0.0000 0.0000 0.0000 -15.5392 -22.2546 -17.6294 2.1261 9.1239 26.1835 1.0150 3.2110 -20.4446 0.0726 -1.7387 -4.7840 0.0000 0.0000 0.0000 16.9215 21.3538 -13.8637 -1.3648 -7.3941 20.8884 1.0427 -18.1014 -10.7945 -1.0776 6.5983 -18.5307 -5.0494 -0.0813 -13.6001 1.3136 0.0932 -7.1639 4.2368 0.0480 0.0366 -9.1530 -4.6471 6.7307 7.2500 -6.9565 2.5403 4.1124 -3.6460 0.2582 -0.0000 0.0000 0.0000 -97.1129 1.4942 8.1110 7.4512 -12.6593 -0.8277 -0.0000 -0.0000 51.3008 -10.3316 23.2688 -4.1192 -7.1250 0.0000 -0.0000 -37.9870 49.2341 -4.5690 -0.0000 0.0000 0.0000 94.2052 -5.5890 11.1580 -7.5882 12.8831 -0.8580 0.0000 0.0000 35.9633 -12.2593 11.5710 -2.4956 7.1250 -0.0000 -0.0000 10.4147 -18.2565 6.7402
48.0400 16.6295 -0.8065 160.6840 -88.9137 -145.7830 0.0000 0.0000 0.0000 -15.6514 -22.5209 -17.6129 2.1478 9.1674 26.3202 1.0100 3.1950 -20.3902 0.0028 0.3395 0.9329 0.0000 0.0000 0.0000 16.8508 21.2129 -13.7758 -1.3534 -7.3643 20.7993 0.9788 -17.9311 -12.2267 -0.7102 5.3861 -15.0131 -5.1305 -0.1413 -13.5190 1.2888 0.0191 -7.1828 4.2465 0.0145 -0.0197 -9.2180 -4.6354 6.8242 7.2341 -6.9560 2.5773 4.1222 -3.6488 0.2555 -0.0000 0.0000 0.0000 -97.1121 1.5015 7.9466 7.5022 -12.7427 -0.8389 -0.0000 -0.0000 51.8743 -11.1905 23.2812 -4.4710 -7.1250 0.0000 -0.0000 -38.7176 49.1124 -4.5535 -0.0000 0.0000 0.0000 94.1495 -5.6197 11.7066 -7.5678 12.8499 -0.8534 0.0000 0.0000 35.9597 -12.1154 11.7179 -2.4963 7.1250 -0.0000 -0.0000 10.5105 -18.1173 6.8371
48.0430 16.6336 -0.8085 160.6680 -88.8412 -145.8330 0.0000 0.0000 0.0000 -15.6851 -22.6291 -17.5878 2.1685 9.2086 26.4501 1.0111 3.2627 -20.4358 0.0027 0.3374 0.9271 0.0000 0.0000 0.0000 16.8535 21.1632 -13.6819 -1.3406 -7.3308 20.6992 0.9084 -17.5920 -12.9027 -0.5352 4.6877 -13.0199 -5.1655 -0.1528 -13.4500 1.2965 0.0002 -7.2348 4.2718 0.0086 -0.1102 -9.2564 -4.6196 7.1562 7.1496 -6.9615 2.4656 4.1145 -3.6560 0.1589 0.0000 0.0000 0.0000 -97.1251 1.6261 7.7622 7.4078 -12.5884 -0.8182 -0.0000 -0.0000 51.3913 -9.9418 22.9199 -3.9050 -7.1250 0.0000 -0.0000 -37.4298 49.0091 -4.2489 0.0000 0.0000 0.0000 94.0365 -5.7305 12.7522 -7.5855 12.8787 -0.8574 0.0000 0.0000 35.3625 -11.9951 11.4409 -2.4133 7.1250 -0.0000 -0.0000 10.6028 -18.4020 6.8315
48.0470 16.6336 -0.8085 163.6860 -88.8437 -148.9090 0.0000 0.0000 0.0000 -15.6435 -22.6036 -17.5818 2.1842 9.2397 26.5479 1.0177 3.2591 -20.4946 0.0034 0.3743 1.0285 0.0000 0.0000 0.0000 16.9397 21.0308 -13.6456 -1.3314 -7.3067 20.6273 0.8740 -17.3380 -12.9026 -0.5313 4.6710 -12.9725 -5.0824 -0.1445 -13.4473 1.3069 0.0036 -7.2108 4.2359 0.0077 -0.0853 -9.2743 -4.6382 7.2288 7.0867 -6.9952 2.4907 4.0980 -3.6741 0.1556 -0.0000 -0.0000 0.0000 -97.1140 1.6146 7.7184 7.3997 -12.5751 -0.8164 -0.0000 -0.0000 51.3185 -9.6326 22.8478 -3.7704 -7.1250 0.0000 -0.0000 -37.1218 48.9969 -4.1910 -0.0000 -0.0000 0.0000 93.9415 -5.6623 13.8013 -7.6368 12.9625 -0.8688 0.0000 0.0000 34.5902 -11.7686 10.8452 -2.2449 7.1250 -0.0000 -0.0000 10.7820 -19.0108 6.8027
48.0502 16.6331 -0.8081 166.4680 -88.9080 -151.7770 0.0000 0.0000 0.0000 -15.5944 -22.5884 -17.5272 2.1928 9.2566 26.6014 1.0242 3.2228 -20.5346 0.0015 0.2542 0.6985 0.0000 0.0000 0.0000 17.0550 20.9048 -13.5815 -1.3292 -7.3009 20.6098 0.8653 -17.2922 -12.9689 -0.5348 4.6858 -13.0147 -4.9661 -0.1437 -13.4553 1.3041 0.0006 -7.1110 4.1665 0.0007 0.0271 -9.2817 -4.6836 7.1026 7.0888 -7.0471 2.5411 4.0943 -3.6984 0.1996 0.0000 0.0000 0.0000 -97.0741 1.4650 7.7155 7.4014 -12.5780 -0.8168 -0.0000 -0.0000 51.3535 -9.4799 22.8284 -3.7067 -7.1250 0.0000 -0.0000 -36.9801 49.0041 -4.1777 0.0000 0.0000 0.0000 93.8916 -5.4381 14.6478 -7.7184 13.0954 -0.8872 0.0000 0.0000 33.9425 -11.2409 10.1466 -2.0053 7.1250 -0.0000 -0.0000 11.1819 -19.7348 6.8805
48.0533 16.6323 -0.8063 165.3090 -88.9454 -150.7060 0.0000 0.0000 0.0000 -15.6468 -22.5678 -17.4591 2.1971 9.2650 26.6279 1.0262 3.2155 -20.5493 0.0001 0.0571 0.1568 0.0000 0.0000 0.0000 17.0712 20.7972 -13.5119 -1.3301 -7.3034 20.6173 0.8790 -17.4281 -13.0863 -0.5571 4.7811 -13.2852 -4.9098 -0.1459 -13.4150 1.2736 -0.0033 -7.0415 4.1016 -0.0038 0.0807 -9.2521 -4.7287 7.0670 7.0481 -7.0979 2.4854 4.0738 -3.7212 0.1897 -0.0000 -0.0000 0.0000 -97.0266 1.3628 7.7031 7.4091 -12.5905 -0.8185 -0.0000 -0.0000 51.4732 -9.6171 22.8016 -3.7570 -7.1250 0.0000 -0.0000 -37.0790 48.9613 -4.1483 -0.0000 -0.0000 0.0000 93.8355 -5.3175 15.3965 -7.8090 13.2429 -0.9079 0.0000 0.0000 33.3845 -10.8642 9.7985 -1.8707 7.1250 -0.0000 -0.0000 11.4644 -20.0986 6.9659
